<?xml version="1.0" encoding="utf-8"?>
<!-- Generator: Adobe Illustrator 18.0.0, SVG Export Plug-In . SVG Version: 6.00 Build 0)  -->
<!DOCTYPE svg PUBLIC "-//W3C//DTD SVG 1.1//EN" "http://www.w3.org/Graphics/SVG/1.1/DTD/svg11.dtd">
<svg version="1.1" id="pongs" xmlns="http://www.w3.org/2000/svg" xmlns:xlink="http://www.w3.org/1999/xlink" x="0px" y="0px"
	 viewBox="0 0 1400 1400" enable-background="new 0 0 1400 1400" xml:space="preserve">
<g id="paddle_x5F_base_copy">
</g>
<g id="handle_copy">
	<g id="handle_x5F_ring_copy">
		<g id="XMLID_2_">
			<g>
				<path fill="#FFFFFF" d="M544.9,815.6c83.1-83.1,156.6-149.4,131.5-249.8C684.2,588,690.1,668,665,718.2
					c-22.1,44.8-46,88.4-16.7,125.5c0.6,0.6,47.2,50.2,91.4,93.2c46.6,44.8,99.2,92.6,111.7,104l0,0c1.2,1.2,1.8,3.6,0.6,5.4
					c-9,16.1-20.3,30.5-32.9,43c-12.5,12.5-27.5,23.9-43,32.9c-1.8,1.2-4.2,0.6-6-1.2c-11.4-12.5-59.2-65.7-104-111.7
					c-42.4-44.2-92.6-90.8-93.2-91.4c-37-29.3-80.7-5.4-125.5,16.7c-50.8,25.7-132.1,19.1-153,11.4
					C396.2,972.2,460.7,899.9,544.9,815.6z"/>
			</g>
			<g>
				<path fill="#FFFFFF" stroke="#FFFFFF" stroke-width="3" stroke-miterlimit="10" d="M295.2,945.9
					c-49.6-12.5-108.7-49.6-182.8-120.7c-128.5-123.1-141-331.6-14.9-457.7s322.7-118.9,449.3,7.2C625,452.3,663.8,513.9,677,565.9
					c24.5,100.4-48.4,167.3-131.5,249.8C460.7,899.9,396.2,972.2,295.2,945.9"/>
				<path fill="none" stroke="#FFFFFF" stroke-width="3" stroke-miterlimit="10" d="M295.2,945.9
					C295.2,946.5,295.2,946.5,295.2,945.9c20.9,8.4,102.2,14.3,153-10.8c44.8-22.1,88.4-46,125.5-16.7c0.6,0.6,50.8,47.2,93.2,91.4
					c44.8,46.6,92.6,99.2,104,111.7c1.2,1.8,3.6,1.8,6,1.2c16.1-9,30.5-20.3,43-32.9c12.5-12.5,23.9-27.5,32.9-43
					c1.2-1.8,0.6-4.2-0.6-5.4l0,0c-12.5-11.4-65.1-59.2-111.7-104c-44.2-42.4-91.4-92.6-91.4-93.2c-29.3-37-5.4-80.7,16.7-125.5
					c25.1-50.2,19.1-130.3,11.4-152.4c0-0.6,0-0.6-0.6-1.2"/>
			</g>
		</g>
		<g id="XMLID_3_">
			<g>
				<path fill="#FFFFFF" d="M852.1,813.8c83.1,83.1,149.4,156.6,249.8,131.5c-22.1,7.8-102.2,13.7-152.4-11.4
					c-44.8-22.1-88.4-46-125.5-16.7c-0.6,0.6-50.2,47.2-93.2,91.4c-44.8,46.6-92.6,99.2-104,111.7l0,0c-1.2,1.2-3.6,1.8-5.4,0.6
					c-16.1-9-30.5-20.3-43-32.9c-12.5-12.5-23.9-27.5-32.9-43c-1.2-1.8-0.6-4.2,1.2-6c12.5-11.4,65.7-59.2,111.7-104
					c44.2-42.4,90.8-92.6,91.4-93.2c29.3-37,5.4-80.7-16.7-125.5c-25.7-50.8-19.1-132.1-11.4-153
					C695.5,664.4,767.8,729.6,852.1,813.8z"/>
			</g>
			<g>
				<path fill="#FFFFFF" stroke="#FFFFFF" stroke-width="3" stroke-miterlimit="10" d="M721.8,564.1
					c12.5-49.6,49.6-108.7,120.7-182.8c123.1-128.5,331.6-141,457.7-14.9s118.9,322.7-7.2,449.3c-77.7,78.3-139.2,117.1-191.2,130.3
					c-100.4,24.5-167.3-48.4-249.8-131.5C767.8,729.6,695.5,664.4,721.8,564.1"/>
				<path fill="none" stroke="#FFFFFF" stroke-width="3" stroke-miterlimit="10" d="M721.8,564.1
					C721.2,564.1,721.2,564.1,721.8,564.1c-8.4,20.9-14.3,102.2,10.8,153c22.1,44.8,46,88.4,16.7,125.5
					c-0.6,0.6-47.2,50.8-91.4,93.2c-46.6,44.8-99.2,92.6-111.7,104c-1.8,1.2-1.8,3.6-1.2,6c9,16.1,20.3,30.5,32.9,43
					c12.5,12.5,27.5,23.9,43,32.9c1.8,1.2,4.2,0.6,5.4-0.6l0,0c11.4-12.5,59.2-65.1,104-111.7c42.4-44.2,92.6-91.4,93.2-91.4
					c37-29.3,80.7-5.4,125.5,16.7c50.2,25.1,130.3,19.1,152.4,11.4c0.6,0,0.6,0,1.2-0.6"/>
			</g>
		</g>
	</g>
</g>
</svg>
